<svg xmlns="http://www.w3.org/2000/svg" version="1.0" viewBox="34.45 2.75 140.96 97.86"><path d="M87.9 100c-23-3.6-44.6-18.5-51.2-35.2a38 38 0 01.4-26.8 33.8 33.8 0 0125.2-19.1 34 34 0 0124.3 5.6c9.1 6.3 13.1 13.7 14.4 26.8 1.6 15.9 4.1 21.8 13.4 30.5a40 40 0 0022.2 11c5.9.8 5.9.8 1.9 2.6a85 85 0 01-10 3.2c-7.1 1.8-32.5 2.7-40.6 1.4z" fill="#ffbb3e"></path><path d="M131.9 83.7c-14.1-5.3-21.3-15.8-23-33.4a42.6 42.6 0 00-11.3-27 38.9 38.9 0 00-21.4-11.8c-8.6-1.2-9.1-1.6-4-3.6A89.3 89.3 0 01105 2.8c24.5 0 44.1 7.1 58.1 21.1 9.3 9.4 12.2 15.8 12.3 27.6.1 8-.2 9.6-2.7 14.3a36 36 0 01-14.9 15.7c-4.4 2.4-6.7 3-13.8 3.2-5.4.2-9.8-.2-12.1-1z" fill="#389cf2"></path></svg>